<svg xmlns="http://www.w3.org/2000/svg" xmlns:svg="http://www.w3.org/2000/svg" xmlns:xlink="http://www.w3.org/1999/xlink" id="svg3199" width="24" height="22" version="1.1"><defs id="defs3201"><linearGradient id="linearGradient10013-4-63-6"><stop style="stop-color:#333;stop-opacity:1" id="stop10015-2-76-1" offset="0"/><stop style="stop-color:#292929;stop-opacity:1" id="stop10017-46-15-8" offset="1"/></linearGradient><linearGradient id="linearGradient10597-5"><stop style="stop-color:#16191a;stop-opacity:1" id="stop10599-2" offset="0"/><stop style="stop-color:#2b3133;stop-opacity:1" id="stop10601-5" offset="1"/></linearGradient><linearGradient id="linearGradient15374" x1="921.328" x2="921.225" y1="-330.051" y2="-322.164" gradientTransform="matrix(1.5918367,0,0,0.85714285,-1456.5464,275.45191)" gradientUnits="userSpaceOnUse" xlink:href="#linearGradient10013-4-63-6"/><linearGradient id="linearGradient15376" x1="1203.918" x2="1203.918" y1="-217.567" y2="-227.08" gradientTransform="translate(-1199.9852,216.38048)" gradientUnits="userSpaceOnUse" xlink:href="#linearGradient10597-5"/><linearGradient id="linearGradient11811" x1="63.569" x2="63.569" y1="127.161" y2="152.662" gradientTransform="matrix(3.0317573,0,0,1.0053174,-102.66338,-0.82153381)" gradientUnits="userSpaceOnUse" xlink:href="#linearGradient5581-5-2-4-6-8-7-35-8"/><linearGradient id="linearGradient5581-5-2-4-6-8-7-35-8"><stop id="stop5583-0-92-8-0-7-6-5-1" offset="0" style="stop-color:#454c4c;stop-opacity:1"/><stop style="stop-color:#393f3f;stop-opacity:1" id="stop5585-4-7-2-7-9-9-92-0" offset=".4"/><stop id="stop5587-6-7-2-0-3-1-21-5" offset="1" style="stop-color:#2d3232;stop-opacity:1"/></linearGradient></defs><metadata id="metadata3204"/><g id="layer1" transform="translate(-342.5,-521.36218)"><g style="display:inline" id="use5671" transform="matrix(1.3594109,0,0,1.3564242,319.2059,481.99447)"><rect id="rect11803" width="29.56" height="29.154" x="50.44" y="125.346" rx="4.414" ry="4.423" transform="matrix(0.47304779,0,0,0.4807373,-6.3607039,-29.396216)" style="color:#000;fill:url(#linearGradient11811);fill-opacity:1;stroke:#1c1f1f;stroke-width:1.54426003;stroke-linecap:butt;stroke-linejoin:round;stroke-miterlimit:4;stroke-opacity:1;stroke-dasharray:none;stroke-dashoffset:0;marker:none;visibility:visible;display:inline;overflow:visible;enable-background:accumulate"/><path id="path11809" d="m 17.87105,33.844107 0,-0.773112 c 0,-1.031264 0.807171,-1.836142 1.811982,-1.836142 l 9.612456,0 c 1.004811,0 1.787822,0.804878 1.787822,1.836142 l 0,0.773112 c 0,-1.031264 -0.783011,-1.836142 -1.787822,-1.836142 l -9.612456,0 c -1.004811,0 -1.811982,0.804878 -1.811982,1.836142 z" style="font-size:medium;font-style:normal;font-variant:normal;font-weight:400;font-stretch:normal;text-indent:0;text-align:start;text-decoration:none;line-height:normal;letter-spacing:normal;word-spacing:normal;text-transform:none;direction:ltr;block-progression:tb;writing-mode:lr-tb;text-anchor:start;baseline-shift:baseline;opacity:.15;color:#000;fill:#fff;fill-opacity:1;fill-rule:nonzero;stroke:none;stroke-width:1.00000012;marker:none;visibility:visible;display:inline;overflow:visible;enable-background:accumulate;font-family:Sans;-inkscape-font-specification:Sans"/><path style="font-size:medium;font-style:normal;font-variant:normal;font-weight:400;font-stretch:normal;text-indent:0;text-align:start;text-decoration:none;line-height:normal;letter-spacing:normal;word-spacing:normal;text-transform:none;direction:ltr;block-progression:tb;writing-mode:lr-tb;text-anchor:start;baseline-shift:baseline;opacity:.15;color:#000;fill:#fff;fill-opacity:1;fill-rule:nonzero;stroke:none;stroke-width:1.00000012;marker:none;visibility:visible;display:inline;overflow:visible;enable-background:accumulate;font-family:Sans;-inkscape-font-specification:Sans" id="path11867" d="m 17.87105,41.158551 0,0.773112 c 0,1.031264 0.807171,1.836142 1.811982,1.836142 l 9.612456,0 c 1.004811,0 1.787822,-0.804878 1.787822,-1.836142 l 0,-0.773112 c 0,1.031264 -0.783011,1.836142 -1.787822,1.836142 l -9.612456,0 c -1.004811,0 -1.811982,-0.804878 -1.811982,-1.836142 z"/><path id="path11869" d="m 17.87105,41.895784 0,0.773112 c 0,1.031264 0.644622,1.836142 1.649433,1.836142 l 10.067593,0 c 1.004811,0 1.495234,-0.804878 1.495234,-1.836142 l 0,-0.773112 c 0,1.031264 -0.783011,1.836142 -1.787822,1.836142 l -9.612456,0 c -1.004811,0 -1.811982,-0.804878 -1.811982,-1.836142 z" style="font-size:medium;font-style:normal;font-variant:normal;font-weight:400;font-stretch:normal;text-indent:0;text-align:start;text-decoration:none;line-height:normal;letter-spacing:normal;word-spacing:normal;text-transform:none;direction:ltr;block-progression:tb;writing-mode:lr-tb;text-anchor:start;baseline-shift:baseline;opacity:.15;color:#000;fill:#000;fill-opacity:.85253451;fill-rule:nonzero;stroke:none;stroke-width:1.00000012;marker:none;visibility:visible;display:inline;overflow:visible;enable-background:accumulate;font-family:Sans;-inkscape-font-specification:Sans"/></g><rect style="color:#000;fill:none;stroke:none;stroke-width:2;marker:none;visibility:visible;display:inline;overflow:visible;enable-background:accumulate" id="rect17347" width="21.944" height="21.944" x="342.299" y="521.584"/></g></svg>